<mxfile host="app.diagrams.net" modified="2023-12-07T08:27:27.251Z" agent="Mozilla/5.0 (Windows NT 10.0; Win64; x64) AppleWebKit/537.36 (KHTML, like Gecko) Chrome/119.0.0.0 Safari/537.36" etag="6C4hVAGRFJpnxGhyQHdt" version="21.6.9" type="github">
  <diagram name="Page-1" id="2YBvvXClWsGukQMizWep">
    <mxGraphModel dx="1358" dy="722" grid="1" gridSize="10" guides="1" tooltips="1" connect="1" arrows="1" fold="1" page="1" pageScale="1" pageWidth="850" pageHeight="1100" math="0" shadow="0">
      <root>
        <mxCell id="0" />
        <mxCell id="1" parent="0" />
        <mxCell id="aM9ryv3xv72pqoxQDRHE-1" value="主持人" style="shape=umlLifeline;perimeter=lifelinePerimeter;whiteSpace=wrap;html=1;container=0;dropTarget=0;collapsible=0;recursiveResize=0;outlineConnect=0;portConstraint=eastwest;newEdgeStyle={&quot;edgeStyle&quot;:&quot;elbowEdgeStyle&quot;,&quot;elbow&quot;:&quot;vertical&quot;,&quot;curved&quot;:0,&quot;rounded&quot;:0};" parent="1" vertex="1">
          <mxGeometry x="40" y="40" width="100" height="290" as="geometry" />
        </mxCell>
        <mxCell id="aM9ryv3xv72pqoxQDRHE-2" value="" style="html=1;points=[];perimeter=orthogonalPerimeter;outlineConnect=0;targetShapes=umlLifeline;portConstraint=eastwest;newEdgeStyle={&quot;edgeStyle&quot;:&quot;elbowEdgeStyle&quot;,&quot;elbow&quot;:&quot;vertical&quot;,&quot;curved&quot;:0,&quot;rounded&quot;:0};" parent="aM9ryv3xv72pqoxQDRHE-1" vertex="1">
          <mxGeometry x="45" y="70" width="10" height="150" as="geometry" />
        </mxCell>
        <mxCell id="aM9ryv3xv72pqoxQDRHE-5" value="单个成员" style="shape=umlLifeline;perimeter=lifelinePerimeter;whiteSpace=wrap;html=1;container=0;dropTarget=0;collapsible=0;recursiveResize=0;outlineConnect=0;portConstraint=eastwest;newEdgeStyle={&quot;edgeStyle&quot;:&quot;elbowEdgeStyle&quot;,&quot;elbow&quot;:&quot;vertical&quot;,&quot;curved&quot;:0,&quot;rounded&quot;:0};" parent="1" vertex="1">
          <mxGeometry x="320" y="40" width="100" height="290" as="geometry" />
        </mxCell>
        <mxCell id="aM9ryv3xv72pqoxQDRHE-6" value="" style="html=1;points=[];perimeter=orthogonalPerimeter;outlineConnect=0;targetShapes=umlLifeline;portConstraint=eastwest;newEdgeStyle={&quot;edgeStyle&quot;:&quot;elbowEdgeStyle&quot;,&quot;elbow&quot;:&quot;vertical&quot;,&quot;curved&quot;:0,&quot;rounded&quot;:0};" parent="aM9ryv3xv72pqoxQDRHE-5" vertex="1">
          <mxGeometry x="45" y="70" width="10" height="150" as="geometry" />
        </mxCell>
        <mxCell id="aM9ryv3xv72pqoxQDRHE-7" value="邀请音频/视频" style="html=1;verticalAlign=bottom;endArrow=block;edgeStyle=elbowEdgeStyle;elbow=vertical;curved=0;rounded=0;" parent="1" source="aM9ryv3xv72pqoxQDRHE-2" target="aM9ryv3xv72pqoxQDRHE-6" edge="1">
          <mxGeometry relative="1" as="geometry">
            <mxPoint x="195" y="130" as="sourcePoint" />
            <Array as="points">
              <mxPoint x="180" y="120" />
            </Array>
          </mxGeometry>
        </mxCell>
        <mxCell id="aM9ryv3xv72pqoxQDRHE-9" value="拒绝音频/视频" style="html=1;verticalAlign=bottom;endArrow=block;edgeStyle=elbowEdgeStyle;elbow=horizontal;curved=0;rounded=0;" parent="1" edge="1">
          <mxGeometry relative="1" as="geometry">
            <mxPoint x="365" y="220" as="sourcePoint" />
            <Array as="points">
              <mxPoint x="240" y="220" />
              <mxPoint x="190" y="190" />
            </Array>
            <mxPoint x="100" y="220" as="targetPoint" />
          </mxGeometry>
        </mxCell>
        <mxCell id="WR2cKldj05sOm4i5absi-1" value="&lt;b&gt;MessageChannel&lt;/b&gt;&lt;br&gt;category：meeting_control&lt;br&gt;type：1(音频)；2(视频)&lt;br&gt;operateBy：owner uid" style="text;html=1;strokeColor=none;fillColor=#E6E6E6;align=left;verticalAlign=middle;whiteSpace=wrap;rounded=0;" vertex="1" parent="1">
          <mxGeometry x="140" y="120" width="190" height="70" as="geometry" />
        </mxCell>
        <mxCell id="WR2cKldj05sOm4i5absi-2" value="&lt;b style=&quot;border-color: var(--border-color); text-align: left;&quot;&gt;MessageChannel&lt;/b&gt;&lt;br&gt;category：meeting_reply&lt;br&gt;type：1(音频)；2(视频)&lt;br&gt;operateBy：owner name" style="text;html=1;strokeColor=none;fillColor=#E6E6E6;align=left;verticalAlign=middle;whiteSpace=wrap;rounded=0;" vertex="1" parent="1">
          <mxGeometry x="140" y="220" width="190" height="70" as="geometry" />
        </mxCell>
        <mxCell id="WR2cKldj05sOm4i5absi-3" style="edgeStyle=elbowEdgeStyle;rounded=0;orthogonalLoop=1;jettySize=auto;html=1;elbow=vertical;curved=0;" edge="1" parent="1">
          <mxGeometry relative="1" as="geometry">
            <mxPoint x="360" y="350" as="sourcePoint" />
            <mxPoint x="95" y="350" as="targetPoint" />
            <Array as="points">
              <mxPoint x="320" y="350" />
            </Array>
          </mxGeometry>
        </mxCell>
        <mxCell id="WR2cKldj05sOm4i5absi-4" value="申请音频/视频" style="text;whiteSpace=wrap;html=1;" vertex="1" parent="1">
          <mxGeometry x="180" y="330" width="110" height="40" as="geometry" />
        </mxCell>
        <mxCell id="WR2cKldj05sOm4i5absi-5" value="&lt;b&gt;updateMemberProperty&lt;/b&gt;&lt;br&gt;key：“handsUp”，&lt;br&gt;value：“1(音频)；2(视频)" style="text;html=1;strokeColor=none;fillColor=#E6E6E6;align=left;verticalAlign=middle;whiteSpace=wrap;rounded=0;" vertex="1" parent="1">
          <mxGeometry x="150" y="350" width="150" height="60" as="geometry" />
        </mxCell>
        <mxCell id="WR2cKldj05sOm4i5absi-6" style="edgeStyle=elbowEdgeStyle;rounded=0;orthogonalLoop=1;jettySize=auto;html=1;elbow=vertical;curved=0;" edge="1" parent="1">
          <mxGeometry relative="1" as="geometry">
            <mxPoint x="93.88" y="450" as="sourcePoint" />
            <mxPoint x="356.13" y="450" as="targetPoint" />
          </mxGeometry>
        </mxCell>
        <mxCell id="WR2cKldj05sOm4i5absi-7" value="同意音频/视频" style="text;whiteSpace=wrap;html=1;" vertex="1" parent="1">
          <mxGeometry x="170" y="430" width="110" height="40" as="geometry" />
        </mxCell>
        <mxCell id="WR2cKldj05sOm4i5absi-8" value="&lt;b style=&quot;border-color: var(--border-color); text-align: left;&quot;&gt;MessageChannel&lt;br&gt;&lt;/b&gt;category：meeting_control&lt;br&gt;type：4(音频)；5(视频)&lt;br&gt;operateBy：owner uid" style="text;html=1;strokeColor=none;fillColor=#E6E6E6;align=left;verticalAlign=middle;whiteSpace=wrap;rounded=0;" vertex="1" parent="1">
          <mxGeometry x="140" y="450" width="170" height="70" as="geometry" />
        </mxCell>
        <mxCell id="WR2cKldj05sOm4i5absi-10" value="拒绝音频/视频" style="text;whiteSpace=wrap;html=1;" vertex="1" parent="1">
          <mxGeometry x="170" y="530" width="110" height="40" as="geometry" />
        </mxCell>
        <mxCell id="WR2cKldj05sOm4i5absi-11" style="edgeStyle=elbowEdgeStyle;rounded=0;orthogonalLoop=1;jettySize=auto;html=1;elbow=vertical;curved=0;" edge="1" parent="1">
          <mxGeometry relative="1" as="geometry">
            <mxPoint x="95" y="550.5" as="sourcePoint" />
            <mxPoint x="357.25" y="550" as="targetPoint" />
          </mxGeometry>
        </mxCell>
        <mxCell id="WR2cKldj05sOm4i5absi-12" value="&lt;b&gt;updateMemberProperty&lt;br&gt;&lt;/b&gt;key：“handsUp”，&lt;br&gt;value：0" style="text;html=1;strokeColor=none;fillColor=#E6E6E6;align=left;verticalAlign=middle;whiteSpace=wrap;rounded=0;" vertex="1" parent="1">
          <mxGeometry x="150" y="550" width="150" height="60" as="geometry" />
        </mxCell>
        <mxCell id="WR2cKldj05sOm4i5absi-16" value="" style="html=1;points=[];perimeter=orthogonalPerimeter;outlineConnect=0;targetShapes=umlLifeline;portConstraint=eastwest;newEdgeStyle={&quot;edgeStyle&quot;:&quot;elbowEdgeStyle&quot;,&quot;elbow&quot;:&quot;vertical&quot;,&quot;curved&quot;:0,&quot;rounded&quot;:0};" vertex="1" parent="1">
          <mxGeometry x="365" y="330" width="10" height="290" as="geometry" />
        </mxCell>
        <mxCell id="WR2cKldj05sOm4i5absi-17" value="" style="html=1;points=[];perimeter=orthogonalPerimeter;outlineConnect=0;targetShapes=umlLifeline;portConstraint=eastwest;newEdgeStyle={&quot;edgeStyle&quot;:&quot;elbowEdgeStyle&quot;,&quot;elbow&quot;:&quot;vertical&quot;,&quot;curved&quot;:0,&quot;rounded&quot;:0};" vertex="1" parent="1">
          <mxGeometry x="85" y="330" width="10" height="290" as="geometry" />
        </mxCell>
        <mxCell id="WR2cKldj05sOm4i5absi-23" style="edgeStyle=elbowEdgeStyle;rounded=0;orthogonalLoop=1;jettySize=auto;html=1;elbow=vertical;curved=0;" edge="1" parent="1">
          <mxGeometry relative="1" as="geometry">
            <mxPoint x="95" y="690" as="targetPoint" />
            <mxPoint x="360" y="690" as="sourcePoint" />
          </mxGeometry>
        </mxCell>
        <mxCell id="WR2cKldj05sOm4i5absi-20" value="" style="html=1;points=[];perimeter=orthogonalPerimeter;outlineConnect=0;targetShapes=umlLifeline;portConstraint=eastwest;newEdgeStyle={&quot;edgeStyle&quot;:&quot;elbowEdgeStyle&quot;,&quot;elbow&quot;:&quot;vertical&quot;,&quot;curved&quot;:0,&quot;rounded&quot;:0};" vertex="1" parent="1">
          <mxGeometry x="365" y="660" width="10" height="200" as="geometry" />
        </mxCell>
        <mxCell id="WR2cKldj05sOm4i5absi-22" style="edgeStyle=elbowEdgeStyle;rounded=0;orthogonalLoop=1;jettySize=auto;html=1;elbow=vertical;curved=0;shadow=0;" edge="1" parent="1">
          <mxGeometry relative="1" as="geometry">
            <mxPoint x="365" y="790" as="targetPoint" />
            <mxPoint x="100" y="790" as="sourcePoint" />
          </mxGeometry>
        </mxCell>
        <mxCell id="WR2cKldj05sOm4i5absi-21" value="" style="html=1;points=[];perimeter=orthogonalPerimeter;outlineConnect=0;targetShapes=umlLifeline;portConstraint=eastwest;newEdgeStyle={&quot;edgeStyle&quot;:&quot;elbowEdgeStyle&quot;,&quot;elbow&quot;:&quot;vertical&quot;,&quot;curved&quot;:0,&quot;rounded&quot;:0};" vertex="1" parent="1">
          <mxGeometry x="85" y="660" width="10" height="200" as="geometry" />
        </mxCell>
        <mxCell id="WR2cKldj05sOm4i5absi-24" value="申请白板互动" style="text;html=1;strokeColor=none;fillColor=none;align=center;verticalAlign=middle;whiteSpace=wrap;rounded=0;" vertex="1" parent="1">
          <mxGeometry x="180" y="670" width="90" height="30" as="geometry" />
        </mxCell>
        <mxCell id="WR2cKldj05sOm4i5absi-25" value="&lt;b&gt;updateMemberProperty&lt;/b&gt;&lt;br&gt;key：“handsUp”，&lt;br&gt;value：3" style="text;html=1;strokeColor=none;fillColor=#E6E6E6;align=left;verticalAlign=middle;whiteSpace=wrap;rounded=0;" vertex="1" parent="1">
          <mxGeometry x="160" y="690" width="150" height="60" as="geometry" />
        </mxCell>
        <mxCell id="WR2cKldj05sOm4i5absi-26" value="同意白板互动" style="text;html=1;strokeColor=none;fillColor=none;align=center;verticalAlign=middle;whiteSpace=wrap;rounded=0;" vertex="1" parent="1">
          <mxGeometry x="180" y="770" width="90" height="30" as="geometry" />
        </mxCell>
        <mxCell id="WR2cKldj05sOm4i5absi-31" value="&lt;b&gt;updateMemberProperty&lt;/b&gt;&lt;br&gt;key：“wbDrawable”，&lt;br&gt;value：1" style="text;html=1;strokeColor=none;fillColor=#E6E6E6;align=left;verticalAlign=middle;whiteSpace=wrap;rounded=0;" vertex="1" parent="1">
          <mxGeometry x="160" y="790" width="150" height="60" as="geometry" />
        </mxCell>
      </root>
    </mxGraphModel>
  </diagram>
</mxfile>
